<mxfile host="app.diagrams.net" modified="2024-06-19T17:15:42.708Z" agent="Mozilla/5.0 (Windows NT 10.0; Win64; x64; rv:127.0) Gecko/20100101 Firefox/127.0" etag="1ih0qyj5E1yhcvfT3bgu" version="24.5.5" type="github">
  <diagram name="Страница — 1" id="Wd8Lt1hOdJY-ABtcQ9To">
    <mxGraphModel dx="6201" dy="4014" grid="1" gridSize="10" guides="1" tooltips="1" connect="1" arrows="1" fold="1" page="1" pageScale="1" pageWidth="827" pageHeight="1169" math="0" shadow="0">
      <root>
        <mxCell id="0" />
        <mxCell id="1" parent="0" />
        <mxCell id="-RUIcNyW75E8LrOZVRRS-27" value="" style="group;rotation=-90;" parent="1" vertex="1" connectable="0">
          <mxGeometry x="-2737.5" y="-1527.5" width="3805" height="2900" as="geometry" />
        </mxCell>
        <mxCell id="-RUIcNyW75E8LrOZVRRS-8" style="rounded=0;orthogonalLoop=1;jettySize=auto;html=1;entryX=0;entryY=0.75;entryDx=0;entryDy=0;exitX=1;exitY=0.5;exitDx=0;exitDy=0;edgeStyle=orthogonalEdgeStyle;" parent="-RUIcNyW75E8LrOZVRRS-27" source="-RUIcNyW75E8LrOZVRRS-7" target="rrfpWrtRIMoo7r-Dwv4L-68" edge="1">
          <mxGeometry relative="1" as="geometry">
            <Array as="points">
              <mxPoint x="1865.5072003631963" y="788.6622516556291" />
              <mxPoint x="2077.407926755448" y="788.6622516556291" />
              <mxPoint x="2077.407926755448" y="726.2450331125827" />
            </Array>
          </mxGeometry>
        </mxCell>
        <mxCell id="-RUIcNyW75E8LrOZVRRS-9" style="rounded=0;orthogonalLoop=1;jettySize=auto;html=1;entryX=0.001;entryY=0.662;entryDx=0;entryDy=0;exitX=1;exitY=0.5;exitDx=0;exitDy=0;edgeStyle=orthogonalEdgeStyle;entryPerimeter=0;" parent="-RUIcNyW75E8LrOZVRRS-27" source="-RUIcNyW75E8LrOZVRRS-7" target="GL7n69devyDXVmoGjWVV-10" edge="1">
          <mxGeometry relative="1" as="geometry">
            <Array as="points">
              <mxPoint x="2100.44061440678" y="807.8675496688742" />
            </Array>
          </mxGeometry>
        </mxCell>
        <mxCell id="-RUIcNyW75E8LrOZVRRS-41" style="edgeStyle=orthogonalEdgeStyle;rounded=0;orthogonalLoop=1;jettySize=auto;html=1;entryX=0;entryY=0.5;entryDx=0;entryDy=0;" parent="-RUIcNyW75E8LrOZVRRS-27" source="PsXaZOM_-T2VpOONmFBl-1" target="-RUIcNyW75E8LrOZVRRS-40" edge="1">
          <mxGeometry relative="1" as="geometry" />
        </mxCell>
        <mxCell id="PsXaZOM_-T2VpOONmFBl-1" value="ApiService.kt" style="rounded=0;whiteSpace=wrap;html=1;rotation=0;" parent="-RUIcNyW75E8LrOZVRRS-27" vertex="1">
          <mxGeometry x="981.0519945520582" y="735.8476821192053" width="110.55690072639226" height="57.6158940397351" as="geometry" />
        </mxCell>
        <mxCell id="GL7n69devyDXVmoGjWVV-4" style="rounded=0;orthogonalLoop=1;jettySize=auto;html=1;entryX=0;entryY=0.5;entryDx=0;entryDy=0;edgeStyle=orthogonalEdgeStyle;" parent="-RUIcNyW75E8LrOZVRRS-27" source="PsXaZOM_-T2VpOONmFBl-3" target="-RUIcNyW75E8LrOZVRRS-7" edge="1">
          <mxGeometry relative="1" as="geometry" />
        </mxCell>
        <mxCell id="-RUIcNyW75E8LrOZVRRS-49" style="edgeStyle=orthogonalEdgeStyle;rounded=0;orthogonalLoop=1;jettySize=auto;html=1;exitX=0;exitY=0.25;exitDx=0;exitDy=0;startArrow=classic;startFill=1;endArrow=none;endFill=0;" parent="-RUIcNyW75E8LrOZVRRS-27" source="PsXaZOM_-T2VpOONmFBl-3" edge="1">
          <mxGeometry relative="1" as="geometry">
            <mxPoint x="1349.5749969733656" y="788.6622516556291" as="targetPoint" />
          </mxGeometry>
        </mxCell>
        <mxCell id="-RUIcNyW75E8LrOZVRRS-55" style="edgeStyle=orthogonalEdgeStyle;rounded=0;orthogonalLoop=1;jettySize=auto;html=1;exitX=0;exitY=0.75;exitDx=0;exitDy=0;startArrow=classic;startFill=1;endArrow=none;endFill=0;" parent="-RUIcNyW75E8LrOZVRRS-27" source="PsXaZOM_-T2VpOONmFBl-3" edge="1">
          <mxGeometry relative="1" as="geometry">
            <mxPoint x="1165.313495762712" y="822.1800693787449" as="targetPoint" />
          </mxGeometry>
        </mxCell>
        <mxCell id="PsXaZOM_-T2VpOONmFBl-3" value="ProjectRepository.kt" style="rounded=0;whiteSpace=wrap;html=1;rotation=0;" parent="-RUIcNyW75E8LrOZVRRS-27" vertex="1">
          <mxGeometry x="1377.2142221549639" y="779.0596026490066" width="110.55690072639226" height="57.6158940397351" as="geometry" />
        </mxCell>
        <mxCell id="GL7n69devyDXVmoGjWVV-72" style="rounded=0;orthogonalLoop=1;jettySize=auto;html=1;entryX=0;entryY=0.5;entryDx=0;entryDy=0;edgeStyle=orthogonalEdgeStyle;" parent="-RUIcNyW75E8LrOZVRRS-27" source="PsXaZOM_-T2VpOONmFBl-4" target="rrfpWrtRIMoo7r-Dwv4L-8" edge="1">
          <mxGeometry relative="1" as="geometry" />
        </mxCell>
        <mxCell id="-RUIcNyW75E8LrOZVRRS-48" style="edgeStyle=orthogonalEdgeStyle;rounded=0;orthogonalLoop=1;jettySize=auto;html=1;exitX=0;exitY=0.25;exitDx=0;exitDy=0;startArrow=classic;startFill=1;endArrow=none;endFill=0;" parent="-RUIcNyW75E8LrOZVRRS-27" source="PsXaZOM_-T2VpOONmFBl-4" edge="1">
          <mxGeometry relative="1" as="geometry">
            <mxPoint x="1351.7649969733657" y="881.737152317881" as="targetPoint" />
            <mxPoint x="1370.1911470944312" y="881.9027152317881" as="sourcePoint" />
          </mxGeometry>
        </mxCell>
        <mxCell id="-RUIcNyW75E8LrOZVRRS-54" style="edgeStyle=orthogonalEdgeStyle;rounded=0;orthogonalLoop=1;jettySize=auto;html=1;exitX=0;exitY=0.75;exitDx=0;exitDy=0;startArrow=classic;startFill=1;endArrow=none;endFill=0;" parent="-RUIcNyW75E8LrOZVRRS-27" source="PsXaZOM_-T2VpOONmFBl-4" edge="1">
          <mxGeometry relative="1" as="geometry">
            <mxPoint x="1167.503495762712" y="910.6192084515926" as="targetPoint" />
          </mxGeometry>
        </mxCell>
        <mxCell id="PsXaZOM_-T2VpOONmFBl-4" value="&lt;div&gt;Resources&lt;/div&gt;&lt;div&gt;Repository.kt&lt;/div&gt;" style="rounded=0;whiteSpace=wrap;html=1;rotation=0;" parent="-RUIcNyW75E8LrOZVRRS-27" vertex="1">
          <mxGeometry x="1379.404222154964" y="867.4987417218542" width="110.55690072639226" height="57.6158940397351" as="geometry" />
        </mxCell>
        <mxCell id="rrfpWrtRIMoo7r-Dwv4L-40" style="rounded=0;orthogonalLoop=1;jettySize=auto;html=1;entryX=0;entryY=0.5;entryDx=0;entryDy=0;edgeStyle=orthogonalEdgeStyle;" parent="-RUIcNyW75E8LrOZVRRS-27" target="PsXaZOM_-T2VpOONmFBl-2" edge="1">
          <mxGeometry relative="1" as="geometry">
            <mxPoint x="1167.5" y="-52.5" as="sourcePoint" />
            <Array as="points">
              <mxPoint x="1165" y="1244" />
              <mxPoint x="1377" y="1244" />
            </Array>
          </mxGeometry>
        </mxCell>
        <mxCell id="rrfpWrtRIMoo7r-Dwv4L-29" style="rounded=0;orthogonalLoop=1;jettySize=auto;html=1;entryX=0;entryY=0.5;entryDx=0;entryDy=0;edgeStyle=orthogonalEdgeStyle;" parent="-RUIcNyW75E8LrOZVRRS-27" source="PsXaZOM_-T2VpOONmFBl-6" target="-RUIcNyW75E8LrOZVRRS-12" edge="1">
          <mxGeometry relative="1" as="geometry" />
        </mxCell>
        <mxCell id="-RUIcNyW75E8LrOZVRRS-36" style="edgeStyle=orthogonalEdgeStyle;rounded=0;orthogonalLoop=1;jettySize=auto;html=1;startArrow=classic;startFill=1;endArrow=none;endFill=0;" parent="-RUIcNyW75E8LrOZVRRS-27" source="PsXaZOM_-T2VpOONmFBl-6" edge="1">
          <mxGeometry relative="1" as="geometry">
            <mxPoint x="1167.503495762712" y="1185.3464238410595" as="targetPoint" />
          </mxGeometry>
        </mxCell>
        <mxCell id="-RUIcNyW75E8LrOZVRRS-46" style="edgeStyle=orthogonalEdgeStyle;rounded=0;orthogonalLoop=1;jettySize=auto;html=1;exitX=0;exitY=0.25;exitDx=0;exitDy=0;startArrow=classic;startFill=1;endArrow=none;endFill=0;" parent="-RUIcNyW75E8LrOZVRRS-27" source="PsXaZOM_-T2VpOONmFBl-6" edge="1">
          <mxGeometry relative="1" as="geometry">
            <mxPoint x="1351.7649969733657" y="1170.9424503311259" as="targetPoint" />
          </mxGeometry>
        </mxCell>
        <mxCell id="PsXaZOM_-T2VpOONmFBl-6" value="TaskRepository.kt" style="rounded=0;whiteSpace=wrap;html=1;rotation=0;" parent="-RUIcNyW75E8LrOZVRRS-27" vertex="1">
          <mxGeometry x="1379.4072972154966" y="1017.298476821192" width="110.55690072639226" height="57.6158940397351" as="geometry" />
        </mxCell>
        <mxCell id="GL7n69devyDXVmoGjWVV-28" style="rounded=0;orthogonalLoop=1;jettySize=auto;html=1;entryX=0;entryY=0.5;entryDx=0;entryDy=0;exitX=1;exitY=0.5;exitDx=0;exitDy=0;edgeStyle=orthogonalEdgeStyle;" parent="-RUIcNyW75E8LrOZVRRS-27" source="rrfpWrtRIMoo7r-Dwv4L-8" target="GL7n69devyDXVmoGjWVV-16" edge="1">
          <mxGeometry relative="1" as="geometry">
            <Array as="points">
              <mxPoint x="2015.106401331719" y="896.3066887417219" />
              <mxPoint x="2015.106401331719" y="953.9225827814569" />
            </Array>
          </mxGeometry>
        </mxCell>
        <mxCell id="rrfpWrtRIMoo7r-Dwv4L-8" value="&lt;div&gt;AddTaskResources&lt;/div&gt;&lt;div&gt;UseCase.kt&lt;/div&gt;" style="rounded=0;whiteSpace=wrap;html=1;rotation=0;" parent="-RUIcNyW75E8LrOZVRRS-27" vertex="1">
          <mxGeometry x="1692.6487742130753" y="867.4987417218542" width="110.55690072639226" height="57.6158940397351" as="geometry" />
        </mxCell>
        <mxCell id="GL7n69devyDXVmoGjWVV-29" style="rounded=0;orthogonalLoop=1;jettySize=auto;html=1;exitX=0.998;exitY=0.19;exitDx=0;exitDy=0;edgeStyle=orthogonalEdgeStyle;exitPerimeter=0;entryX=0;entryY=0.75;entryDx=0;entryDy=0;" parent="-RUIcNyW75E8LrOZVRRS-27" source="-RUIcNyW75E8LrOZVRRS-12" target="GL7n69devyDXVmoGjWVV-16" edge="1">
          <mxGeometry relative="1" as="geometry">
            <mxPoint x="2125.663302058111" y="998.0947682119206" as="targetPoint" />
            <Array as="points">
              <mxPoint x="1995.7589437046008" y="1000.015298013245" />
              <mxPoint x="2015.106401331719" y="1000.015298013245" />
              <mxPoint x="2015.106401331719" y="968.3265562913907" />
            </Array>
          </mxGeometry>
        </mxCell>
        <mxCell id="GL7n69devyDXVmoGjWVV-1" style="rounded=0;orthogonalLoop=1;jettySize=auto;html=1;entryX=-0.003;entryY=0.326;entryDx=0;entryDy=0;edgeStyle=orthogonalEdgeStyle;entryPerimeter=0;exitX=1;exitY=0.75;exitDx=0;exitDy=0;" parent="-RUIcNyW75E8LrOZVRRS-27" source="-RUIcNyW75E8LrOZVRRS-20" target="rrfpWrtRIMoo7r-Dwv4L-68" edge="1">
          <mxGeometry relative="1" as="geometry">
            <mxPoint x="1782.589524818402" y="-152.39735099337747" as="sourcePoint" />
            <Array as="points">
              <mxPoint x="1828.6549001210653" y="289.3245033112583" />
              <mxPoint x="2012.916401331719" y="289.3245033112583" />
              <mxPoint x="2012.916401331719" y="702.2384105960265" />
              <mxPoint x="2105.047151937046" y="702.2384105960265" />
            </Array>
          </mxGeometry>
        </mxCell>
        <mxCell id="-RUIcNyW75E8LrOZVRRS-13" value="" style="group;rotation=0;" parent="-RUIcNyW75E8LrOZVRRS-27" vertex="1" connectable="0">
          <mxGeometry x="1609.7310986682812" y="1079.7172847682118" width="741.6525423728813" height="263.8394701986755" as="geometry" />
        </mxCell>
        <mxCell id="-RUIcNyW75E8LrOZVRRS-12" value="" style="rounded=1;whiteSpace=wrap;html=1;rotation=0;" parent="-RUIcNyW75E8LrOZVRRS-13" vertex="1">
          <mxGeometry x="-18.426150121065376" y="-110.43046357615894" width="405.3753026634383" height="153.64238410596028" as="geometry" />
        </mxCell>
        <mxCell id="rrfpWrtRIMoo7r-Dwv4L-10" value="&lt;div&gt;AddMembersToTask&lt;/div&gt;&lt;div&gt;UseCase.kt&lt;/div&gt;" style="rounded=0;whiteSpace=wrap;html=1;rotation=0;" parent="-RUIcNyW75E8LrOZVRRS-13" vertex="1">
          <mxGeometry x="129.9043583535109" y="-100.82781456953643" width="118.6464300478356" height="57.6158940397351" as="geometry" />
        </mxCell>
        <mxCell id="rrfpWrtRIMoo7r-Dwv4L-11" value="&lt;div&gt;CreateTask&lt;/div&gt;&lt;div&gt;UseCase.kt&lt;/div&gt;" style="rounded=0;whiteSpace=wrap;html=1;rotation=0;" parent="-RUIcNyW75E8LrOZVRRS-13" vertex="1">
          <mxGeometry x="129.9043583535109" y="-33.60927152317881" width="118.6464300478356" height="57.6158940397351" as="geometry" />
        </mxCell>
        <mxCell id="rrfpWrtRIMoo7r-Dwv4L-13" value="&lt;div&gt;EditTask&lt;/div&gt;&lt;div&gt;UseCase.kt&lt;/div&gt;" style="rounded=0;whiteSpace=wrap;html=1;rotation=0;" parent="-RUIcNyW75E8LrOZVRRS-13" vertex="1">
          <mxGeometry x="1.8426150121065377" y="-33.60927152317881" width="118.6464300478356" height="57.6158940397351" as="geometry" />
        </mxCell>
        <mxCell id="rrfpWrtRIMoo7r-Dwv4L-14" value="&lt;div&gt;GetTaskById&lt;/div&gt;&lt;div&gt;UseCase.kt&lt;/div&gt;" style="rounded=0;whiteSpace=wrap;html=1;rotation=0;" parent="-RUIcNyW75E8LrOZVRRS-13" vertex="1">
          <mxGeometry x="257.96610169491527" y="-33.60927152317881" width="118.6464300478356" height="57.6158940397351" as="geometry" />
        </mxCell>
        <mxCell id="rrfpWrtRIMoo7r-Dwv4L-12" value="&lt;div&gt;DeleteMember&lt;/div&gt;&lt;div&gt;FromTask&lt;/div&gt;&lt;div&gt;UseCase.kt&lt;/div&gt;" style="rounded=0;whiteSpace=wrap;html=1;rotation=0;" parent="-RUIcNyW75E8LrOZVRRS-13" vertex="1">
          <mxGeometry x="257.96610169491527" y="-100.82781456953643" width="118.6464300478356" height="57.6158940397351" as="geometry" />
        </mxCell>
        <mxCell id="rrfpWrtRIMoo7r-Dwv4L-15" value="&lt;div&gt;GetTaskMembers&lt;/div&gt;&lt;div&gt;UseCase.kt&lt;/div&gt;" style="rounded=0;whiteSpace=wrap;html=1;rotation=0;" parent="-RUIcNyW75E8LrOZVRRS-13" vertex="1">
          <mxGeometry x="1.8426150121065377" y="-100.82781456953643" width="118.6464300478356" height="57.6158940397351" as="geometry" />
        </mxCell>
        <mxCell id="PsXaZOM_-T2VpOONmFBl-2" value="InviteRepository.kt" style="rounded=0;whiteSpace=wrap;html=1;rotation=0;" parent="-RUIcNyW75E8LrOZVRRS-13" vertex="1">
          <mxGeometry x="-230.3268765133173" y="135.8096688741723" width="110.55690072639226" height="57.6158940397351" as="geometry" />
        </mxCell>
        <mxCell id="rrfpWrtRIMoo7r-Dwv4L-60" style="rounded=0;orthogonalLoop=1;jettySize=auto;html=1;entryX=0;entryY=0.5;entryDx=0;entryDy=0;exitX=1;exitY=0.5;exitDx=0;exitDy=0;edgeStyle=orthogonalEdgeStyle;" parent="-RUIcNyW75E8LrOZVRRS-13" source="-RUIcNyW75E8LrOZVRRS-1" target="rrfpWrtRIMoo7r-Dwv4L-57" edge="1">
          <mxGeometry relative="1" as="geometry" />
        </mxCell>
        <mxCell id="-RUIcNyW75E8LrOZVRRS-3" value="" style="rounded=0;orthogonalLoop=1;jettySize=auto;html=1;entryX=0;entryY=0.5;entryDx=0;entryDy=0;edgeStyle=orthogonalEdgeStyle;" parent="-RUIcNyW75E8LrOZVRRS-13" source="PsXaZOM_-T2VpOONmFBl-2" target="-RUIcNyW75E8LrOZVRRS-1" edge="1">
          <mxGeometry relative="1" as="geometry">
            <mxPoint x="-119.76997578692522" y="462.779867549669" as="sourcePoint" />
            <mxPoint x="175.0484261501208" y="322.5811920529802" as="targetPoint" />
          </mxGeometry>
        </mxCell>
        <mxCell id="-RUIcNyW75E8LrOZVRRS-4" value="" style="group;rotation=0;" parent="-RUIcNyW75E8LrOZVRRS-13" vertex="1" connectable="0">
          <mxGeometry x="44.222760290556835" y="85.39576158940395" width="285.60532687651335" height="158.44370860927154" as="geometry" />
        </mxCell>
        <mxCell id="-RUIcNyW75E8LrOZVRRS-1" value="" style="rounded=1;whiteSpace=wrap;html=1;rotation=0;" parent="-RUIcNyW75E8LrOZVRRS-4" vertex="1">
          <mxGeometry width="285.60532687651335" height="158.44370860927154" as="geometry" />
        </mxCell>
        <mxCell id="rrfpWrtRIMoo7r-Dwv4L-2" value="&lt;div&gt;AcceptInvite&lt;/div&gt;&lt;div&gt;UseCase.kt&lt;/div&gt;" style="rounded=0;whiteSpace=wrap;html=1;rotation=0;" parent="-RUIcNyW75E8LrOZVRRS-4" vertex="1">
          <mxGeometry x="147.409200968523" y="82.58278145695365" width="110.55690072639226" height="57.61589403973511" as="geometry" />
        </mxCell>
        <mxCell id="rrfpWrtRIMoo7r-Dwv4L-3" value="&lt;div&gt;GetInviteById&lt;/div&gt;&lt;div&gt;UseCase.kt&lt;/div&gt;" style="rounded=0;whiteSpace=wrap;html=1;rotation=0;" parent="-RUIcNyW75E8LrOZVRRS-4" vertex="1">
          <mxGeometry x="147.409200968523" y="14.403973509933778" width="110.55690072639226" height="57.61589403973511" as="geometry" />
        </mxCell>
        <mxCell id="rrfpWrtRIMoo7r-Dwv4L-4" value="&lt;div&gt;DeclineInvite&lt;/div&gt;&lt;div&gt;UseCase.kt&lt;/div&gt;" style="rounded=0;whiteSpace=wrap;html=1;rotation=0;" parent="-RUIcNyW75E8LrOZVRRS-4" vertex="1">
          <mxGeometry x="18.426150121065376" y="82.58278145695365" width="110.55690072639226" height="57.61589403973511" as="geometry" />
        </mxCell>
        <mxCell id="rrfpWrtRIMoo7r-Dwv4L-5" value="&lt;div&gt;GetInvites&lt;/div&gt;&lt;div&gt;UseCase.kt&lt;/div&gt;" style="rounded=0;whiteSpace=wrap;html=1;rotation=0;" parent="-RUIcNyW75E8LrOZVRRS-4" vertex="1">
          <mxGeometry x="18.426150121065376" y="15.364238410596029" width="110.55690072639226" height="57.61589403973511" as="geometry" />
        </mxCell>
        <mxCell id="-RUIcNyW75E8LrOZVRRS-5" style="rounded=0;orthogonalLoop=1;jettySize=auto;html=1;exitX=1;exitY=0.5;exitDx=0;exitDy=0;entryX=0;entryY=0.5;entryDx=0;entryDy=0;edgeStyle=orthogonalEdgeStyle;" parent="-RUIcNyW75E8LrOZVRRS-13" source="-RUIcNyW75E8LrOZVRRS-1" target="rrfpWrtRIMoo7r-Dwv4L-71" edge="1">
          <mxGeometry relative="1" as="geometry" />
        </mxCell>
        <mxCell id="rrfpWrtRIMoo7r-Dwv4L-57" value="&lt;div&gt;NotificationProfile&lt;/div&gt;&lt;div&gt;Screen&lt;/div&gt;&lt;div&gt;ViewModel.kt&lt;/div&gt;" style="rounded=0;whiteSpace=wrap;html=1;rotation=0;" parent="-RUIcNyW75E8LrOZVRRS-13" vertex="1">
          <mxGeometry x="497.5060532687646" y="27.779867549669007" width="110.55690072639226" height="57.6158940397351" as="geometry" />
        </mxCell>
        <mxCell id="rrfpWrtRIMoo7r-Dwv4L-71" value="&lt;div&gt;Notification&lt;/div&gt;&lt;div&gt;ViewModel&lt;/div&gt;.kt" style="rounded=0;whiteSpace=wrap;html=1;rotation=0;" parent="-RUIcNyW75E8LrOZVRRS-13" vertex="1">
          <mxGeometry x="497.5060532687646" y="154.53483443708615" width="110.55690072639226" height="57.6158940397351" as="geometry" />
        </mxCell>
        <mxCell id="rrfpWrtRIMoo7r-Dwv4L-72" value="NotificationScreen.kt" style="whiteSpace=wrap;html=1;rounded=0;rotation=0;" parent="-RUIcNyW75E8LrOZVRRS-13" vertex="1">
          <mxGeometry x="631.095641646489" y="154.53483443708615" width="110.55690072639226" height="57.6158940397351" as="geometry" />
        </mxCell>
        <mxCell id="rrfpWrtRIMoo7r-Dwv4L-70" value="" style="rounded=0;orthogonalLoop=1;jettySize=auto;html=1;edgeStyle=orthogonalEdgeStyle;" parent="-RUIcNyW75E8LrOZVRRS-13" source="rrfpWrtRIMoo7r-Dwv4L-71" target="rrfpWrtRIMoo7r-Dwv4L-72" edge="1">
          <mxGeometry relative="1" as="geometry" />
        </mxCell>
        <mxCell id="rrfpWrtRIMoo7r-Dwv4L-58" value="&lt;div&gt;NotificationProfile&lt;/div&gt;&lt;div&gt;Screen.kt&lt;/div&gt;" style="whiteSpace=wrap;html=1;rounded=0;rotation=0;" parent="-RUIcNyW75E8LrOZVRRS-13" vertex="1">
          <mxGeometry x="631.095641646489" y="27.779867549669007" width="110.55690072639226" height="57.6158940397351" as="geometry" />
        </mxCell>
        <mxCell id="rrfpWrtRIMoo7r-Dwv4L-59" value="" style="rounded=0;orthogonalLoop=1;jettySize=auto;html=1;edgeStyle=orthogonalEdgeStyle;" parent="-RUIcNyW75E8LrOZVRRS-13" source="rrfpWrtRIMoo7r-Dwv4L-57" target="rrfpWrtRIMoo7r-Dwv4L-58" edge="1">
          <mxGeometry relative="1" as="geometry" />
        </mxCell>
        <mxCell id="-RUIcNyW75E8LrOZVRRS-29" value="" style="group;rotation=90;" parent="-RUIcNyW75E8LrOZVRRS-27" vertex="1" connectable="0">
          <mxGeometry x="1695.0653117433415" y="673.430463576159" width="82.91767554479419" height="268.8741721854305" as="geometry" />
        </mxCell>
        <mxCell id="-RUIcNyW75E8LrOZVRRS-7" value="" style="rounded=1;whiteSpace=wrap;html=1;rotation=0;" parent="-RUIcNyW75E8LrOZVRRS-29" vertex="1">
          <mxGeometry x="-87.52421307506053" y="91.22516556291392" width="257.96610169491527" height="86.42384105960267" as="geometry" />
        </mxCell>
        <mxCell id="rrfpWrtRIMoo7r-Dwv4L-6" value="&lt;div&gt;CreateProject&lt;/div&gt;&lt;div&gt;UseCase.kt&lt;/div&gt;" style="rounded=0;whiteSpace=wrap;html=1;rotation=0;" parent="-RUIcNyW75E8LrOZVRRS-29" vertex="1">
          <mxGeometry x="50.671912832929785" y="105.62913907284769" width="110.55690072639226" height="57.61589403973511" as="geometry" />
        </mxCell>
        <mxCell id="rrfpWrtRIMoo7r-Dwv4L-7" value="&lt;div&gt;GetProjectById&lt;/div&gt;&lt;div&gt;UseCase.kt&lt;/div&gt;" style="rounded=0;whiteSpace=wrap;html=1;rotation=0;" parent="-RUIcNyW75E8LrOZVRRS-29" vertex="1">
          <mxGeometry x="-73.7046004842615" y="105.62913907284769" width="110.55690072639226" height="57.61589403973511" as="geometry" />
        </mxCell>
        <mxCell id="rrfpWrtRIMoo7r-Dwv4L-47" value="" style="rounded=0;orthogonalLoop=1;jettySize=auto;html=1;edgeStyle=orthogonalEdgeStyle;" parent="-RUIcNyW75E8LrOZVRRS-27" source="rrfpWrtRIMoo7r-Dwv4L-45" target="rrfpWrtRIMoo7r-Dwv4L-46" edge="1">
          <mxGeometry relative="1" as="geometry" />
        </mxCell>
        <mxCell id="rrfpWrtRIMoo7r-Dwv4L-45" value="&lt;div&gt;CreateTaskScreen&lt;/div&gt;&lt;div&gt;ViewModel.kt&lt;/div&gt;" style="rounded=0;whiteSpace=wrap;html=1;rotation=0;" parent="-RUIcNyW75E8LrOZVRRS-27" vertex="1">
          <mxGeometry x="2107.237151937046" y="1036.5053642384105" width="110.55690072639226" height="57.6158940397351" as="geometry" />
        </mxCell>
        <mxCell id="rrfpWrtRIMoo7r-Dwv4L-46" value="&lt;div&gt;CreateTask&lt;/div&gt;&lt;div&gt;Screen.kt&lt;/div&gt;" style="whiteSpace=wrap;html=1;rounded=0;rotation=0;" parent="-RUIcNyW75E8LrOZVRRS-27" vertex="1">
          <mxGeometry x="2240.82674031477" y="1036.5053642384105" width="110.55690072639226" height="57.6158940397351" as="geometry" />
        </mxCell>
        <mxCell id="rrfpWrtRIMoo7r-Dwv4L-68" value="&lt;div&gt;ProjectScreen&lt;/div&gt;&lt;div&gt;ViewModel.kt&lt;/div&gt;" style="rounded=0;whiteSpace=wrap;html=1;rotation=0;" parent="-RUIcNyW75E8LrOZVRRS-27" vertex="1">
          <mxGeometry x="2105.047151937046" y="683.0331125827814" width="110.55690072639226" height="57.6158940397351" as="geometry" />
        </mxCell>
        <mxCell id="GL7n69devyDXVmoGjWVV-9" style="rounded=0;orthogonalLoop=1;jettySize=auto;html=1;entryX=0;entryY=0.5;entryDx=0;entryDy=0;edgeStyle=orthogonalEdgeStyle;" parent="-RUIcNyW75E8LrOZVRRS-27" source="GL7n69devyDXVmoGjWVV-10" target="GL7n69devyDXVmoGjWVV-11" edge="1">
          <mxGeometry relative="1" as="geometry" />
        </mxCell>
        <mxCell id="GL7n69devyDXVmoGjWVV-10" value="&lt;div&gt;StatisticScreen&lt;/div&gt;&lt;div&gt;ViewModel.kt&lt;/div&gt;" style="rounded=0;whiteSpace=wrap;html=1;rotation=0;" parent="-RUIcNyW75E8LrOZVRRS-27" vertex="1">
          <mxGeometry x="2105.047151937046" y="769.4569536423842" width="110.55690072639226" height="57.6158940397351" as="geometry" />
        </mxCell>
        <mxCell id="GL7n69devyDXVmoGjWVV-11" value="StatisticScreen.kt" style="rounded=0;whiteSpace=wrap;html=1;rotation=0;" parent="-RUIcNyW75E8LrOZVRRS-27" vertex="1">
          <mxGeometry x="2238.63674031477" y="769.4569536423842" width="110.55690072639226" height="57.6158940397351" as="geometry" />
        </mxCell>
        <mxCell id="GL7n69devyDXVmoGjWVV-15" style="rounded=0;orthogonalLoop=1;jettySize=auto;html=1;entryX=0;entryY=0.5;entryDx=0;entryDy=0;edgeStyle=orthogonalEdgeStyle;" parent="-RUIcNyW75E8LrOZVRRS-27" source="GL7n69devyDXVmoGjWVV-16" target="GL7n69devyDXVmoGjWVV-17" edge="1">
          <mxGeometry relative="1" as="geometry" />
        </mxCell>
        <mxCell id="GL7n69devyDXVmoGjWVV-16" value="&lt;div&gt;TaskScreen&lt;/div&gt;&lt;div&gt;ViewModel.kt&lt;/div&gt;" style="rounded=0;whiteSpace=wrap;html=1;rotation=0;" parent="-RUIcNyW75E8LrOZVRRS-27" vertex="1">
          <mxGeometry x="2107.237151937046" y="925.1146357615894" width="110.55690072639226" height="57.6158940397351" as="geometry" />
        </mxCell>
        <mxCell id="GL7n69devyDXVmoGjWVV-17" value="TaskScreen.kt" style="rounded=0;whiteSpace=wrap;html=1;rotation=0;" parent="-RUIcNyW75E8LrOZVRRS-27" vertex="1">
          <mxGeometry x="2240.82674031477" y="925.1146357615894" width="110.55690072639226" height="57.6158940397351" as="geometry" />
        </mxCell>
        <mxCell id="rrfpWrtRIMoo7r-Dwv4L-69" value="&lt;div&gt;ProjectScreen.kt&lt;/div&gt;" style="whiteSpace=wrap;html=1;rounded=0;rotation=0;" parent="-RUIcNyW75E8LrOZVRRS-27" vertex="1">
          <mxGeometry x="2238.63674031477" y="683.0331125827814" width="110.55690072639226" height="57.6158940397351" as="geometry" />
        </mxCell>
        <mxCell id="rrfpWrtRIMoo7r-Dwv4L-67" value="" style="rounded=0;orthogonalLoop=1;jettySize=auto;html=1;edgeStyle=orthogonalEdgeStyle;" parent="-RUIcNyW75E8LrOZVRRS-27" source="rrfpWrtRIMoo7r-Dwv4L-68" target="rrfpWrtRIMoo7r-Dwv4L-69" edge="1">
          <mxGeometry relative="1" as="geometry" />
        </mxCell>
        <mxCell id="-RUIcNyW75E8LrOZVRRS-44" style="edgeStyle=orthogonalEdgeStyle;rounded=0;orthogonalLoop=1;jettySize=auto;html=1;entryX=0;entryY=0.75;entryDx=0;entryDy=0;exitX=0;exitY=0.75;exitDx=0;exitDy=0;startArrow=classic;startFill=1;" parent="-RUIcNyW75E8LrOZVRRS-27" source="PsXaZOM_-T2VpOONmFBl-8" target="PsXaZOM_-T2VpOONmFBl-2" edge="1">
          <mxGeometry relative="1" as="geometry">
            <mxPoint x="1333.3388468523003" y="-735.4168874172186" as="sourcePoint" />
            <Array as="points">
              <mxPoint x="1352" y="-39" />
              <mxPoint x="1352" y="1259" />
            </Array>
            <mxPoint x="1381.5942221549644" y="1305.7209271523177" as="targetPoint" />
          </mxGeometry>
        </mxCell>
        <mxCell id="-RUIcNyW75E8LrOZVRRS-53" style="edgeStyle=orthogonalEdgeStyle;rounded=0;orthogonalLoop=1;jettySize=auto;html=1;" parent="-RUIcNyW75E8LrOZVRRS-27" source="-RUIcNyW75E8LrOZVRRS-40" edge="1">
          <mxGeometry relative="1" as="geometry">
            <mxPoint x="1349.5749969733656" y="764.6556291390729" as="targetPoint" />
          </mxGeometry>
        </mxCell>
        <mxCell id="-RUIcNyW75E8LrOZVRRS-40" value="&lt;div&gt;SessionCache&lt;/div&gt;&lt;div&gt;Repository.kt&lt;/div&gt;" style="rounded=0;whiteSpace=wrap;html=1;rotation=0;" parent="-RUIcNyW75E8LrOZVRRS-27" vertex="1">
          <mxGeometry x="1202.1657960048426" y="735.8476821192053" width="110.55690072639226" height="57.6158940397351" as="geometry" />
        </mxCell>
        <mxCell id="GL7n69devyDXVmoGjWVV-22" style="rounded=0;orthogonalLoop=1;jettySize=auto;html=1;entryX=0;entryY=0.75;entryDx=0;entryDy=0;exitX=1;exitY=0.5;exitDx=0;exitDy=0;edgeStyle=orthogonalEdgeStyle;" parent="-RUIcNyW75E8LrOZVRRS-27" source="-RUIcNyW75E8LrOZVRRS-12" target="GL7n69devyDXVmoGjWVV-13" edge="1">
          <mxGeometry relative="1" as="geometry">
            <Array as="points">
              <mxPoint x="2049.7687015738497" y="1063.2980132450332" />
              <mxPoint x="2049.7687015738497" y="620.6158940397352" />
            </Array>
          </mxGeometry>
        </mxCell>
        <mxCell id="-RUIcNyW75E8LrOZVRRS-10" style="rounded=0;orthogonalLoop=1;jettySize=auto;html=1;exitX=1;exitY=0.5;exitDx=0;exitDy=0;edgeStyle=orthogonalEdgeStyle;entryX=0;entryY=0.75;entryDx=0;entryDy=0;" parent="-RUIcNyW75E8LrOZVRRS-27" source="-RUIcNyW75E8LrOZVRRS-7" target="GL7n69devyDXVmoGjWVV-45" edge="1">
          <mxGeometry relative="1" as="geometry">
            <mxPoint x="2095.8340768765133" y="222.10596026490066" as="targetPoint" />
            <Array as="points">
              <mxPoint x="1865.5072003631963" y="779.0596026490066" />
              <mxPoint x="2003.7033262711864" y="779.0596026490066" />
              <mxPoint x="2003.7033262711864" y="428.5629139072847" />
            </Array>
          </mxGeometry>
        </mxCell>
        <mxCell id="-RUIcNyW75E8LrOZVRRS-63" style="edgeStyle=orthogonalEdgeStyle;rounded=0;orthogonalLoop=1;jettySize=auto;html=1;exitX=1;exitY=0.75;exitDx=0;exitDy=0;entryX=0;entryY=0.5;entryDx=0;entryDy=0;" parent="-RUIcNyW75E8LrOZVRRS-27" source="-RUIcNyW75E8LrOZVRRS-12" target="rrfpWrtRIMoo7r-Dwv4L-45" edge="1">
          <mxGeometry relative="1" as="geometry">
            <Array as="points">
              <mxPoint x="1996.6802512106538" y="1065.3133112582782" />
            </Array>
          </mxGeometry>
        </mxCell>
        <mxCell id="rrfpWrtRIMoo7r-Dwv4L-39" style="rounded=0;orthogonalLoop=1;jettySize=auto;html=1;exitX=0.5;exitY=1;exitDx=0;exitDy=0;edgeStyle=orthogonalEdgeStyle;entryX=0;entryY=0.5;entryDx=0;entryDy=0;" parent="-RUIcNyW75E8LrOZVRRS-27" target="PsXaZOM_-T2VpOONmFBl-8" edge="1">
          <mxGeometry relative="1" as="geometry">
            <mxPoint x="1167.503495762712" y="404.4837748344371" as="sourcePoint" />
            <mxPoint x="1176.7165708232446" y="82.79503311258277" as="targetPoint" />
            <Array as="points">
              <mxPoint x="1168" y="-54" />
              <mxPoint x="1379" y="-54" />
            </Array>
          </mxGeometry>
        </mxCell>
        <mxCell id="rrfpWrtRIMoo7r-Dwv4L-54" style="rounded=0;orthogonalLoop=1;jettySize=auto;html=1;entryX=0;entryY=0.5;entryDx=0;entryDy=0;edgeStyle=orthogonalEdgeStyle;" parent="-RUIcNyW75E8LrOZVRRS-27" target="-RUIcNyW75E8LrOZVRRS-20" edge="1">
          <mxGeometry relative="1" as="geometry">
            <mxPoint x="1349.5749969733656" y="310.5165562913907" as="sourcePoint" />
            <Array as="points">
              <mxPoint x="1358.7880720338985" y="310.5165562913907" />
            </Array>
          </mxGeometry>
        </mxCell>
        <mxCell id="GL7n69devyDXVmoGjWVV-75" style="rounded=0;orthogonalLoop=1;jettySize=auto;html=1;entryX=0;entryY=0.5;entryDx=0;entryDy=0;edgeStyle=orthogonalEdgeStyle;" parent="-RUIcNyW75E8LrOZVRRS-27" source="PsXaZOM_-T2VpOONmFBl-7" target="-RUIcNyW75E8LrOZVRRS-14" edge="1">
          <mxGeometry relative="1" as="geometry" />
        </mxCell>
        <mxCell id="-RUIcNyW75E8LrOZVRRS-51" style="edgeStyle=orthogonalEdgeStyle;rounded=0;orthogonalLoop=1;jettySize=auto;html=1;targetPerimeterSpacing=1;startArrow=classic;startFill=1;endArrow=none;endFill=0;" parent="-RUIcNyW75E8LrOZVRRS-27" source="PsXaZOM_-T2VpOONmFBl-7" edge="1">
          <mxGeometry relative="1" as="geometry">
            <mxPoint x="1349.5749969733656" y="587.0066225165563" as="targetPoint" />
          </mxGeometry>
        </mxCell>
        <mxCell id="-RUIcNyW75E8LrOZVRRS-56" style="edgeStyle=orthogonalEdgeStyle;rounded=0;orthogonalLoop=1;jettySize=auto;html=1;exitX=0;exitY=0.75;exitDx=0;exitDy=0;startArrow=classic;startFill=1;endArrow=none;endFill=0;" parent="-RUIcNyW75E8LrOZVRRS-27" source="PsXaZOM_-T2VpOONmFBl-7" edge="1">
          <mxGeometry relative="1" as="geometry">
            <mxPoint x="1165.313495762712" y="601.3191422264271" as="targetPoint" />
          </mxGeometry>
        </mxCell>
        <mxCell id="PsXaZOM_-T2VpOONmFBl-7" value="TeamRepository.kt" style="rounded=0;whiteSpace=wrap;html=1;rotation=0;" parent="-RUIcNyW75E8LrOZVRRS-27" vertex="1">
          <mxGeometry x="1386.5007596852302" y="466.9686754966888" width="110.55690072639226" height="57.6158940397351" as="geometry" />
        </mxCell>
        <mxCell id="-RUIcNyW75E8LrOZVRRS-19" style="rounded=0;orthogonalLoop=1;jettySize=auto;html=1;entryX=0;entryY=0.5;entryDx=0;entryDy=0;edgeStyle=orthogonalEdgeStyle;" parent="-RUIcNyW75E8LrOZVRRS-27" source="PsXaZOM_-T2VpOONmFBl-8" target="-RUIcNyW75E8LrOZVRRS-16" edge="1">
          <mxGeometry relative="1" as="geometry" />
        </mxCell>
        <mxCell id="PsXaZOM_-T2VpOONmFBl-8" value="UserRepository.kt" style="rounded=0;whiteSpace=wrap;html=1;rotation=0;" parent="-RUIcNyW75E8LrOZVRRS-27" vertex="1">
          <mxGeometry x="1379.404222154964" y="-82.46986754966889" width="110.55690072639226" height="57.6158940397351" as="geometry" />
        </mxCell>
        <mxCell id="GL7n69devyDXVmoGjWVV-52" style="rounded=0;orthogonalLoop=1;jettySize=auto;html=1;entryX=0;entryY=0.25;entryDx=0;entryDy=0;exitX=1;exitY=0.5;exitDx=0;exitDy=0;edgeStyle=orthogonalEdgeStyle;" parent="-RUIcNyW75E8LrOZVRRS-27" source="-RUIcNyW75E8LrOZVRRS-20" target="GL7n69devyDXVmoGjWVV-42" edge="1">
          <mxGeometry relative="1" as="geometry">
            <Array as="points">
              <mxPoint x="1828.6549001210653" y="270.11920529801324" />
              <mxPoint x="2049.7687015738497" y="270.11920529801324" />
              <mxPoint x="2049.7687015738497" y="510.18543046357615" />
            </Array>
          </mxGeometry>
        </mxCell>
        <mxCell id="GL7n69devyDXVmoGjWVV-60" style="rounded=0;orthogonalLoop=1;jettySize=auto;html=1;entryX=0;entryY=0.25;entryDx=0;entryDy=0;exitX=1.004;exitY=0.841;exitDx=0;exitDy=0;edgeStyle=orthogonalEdgeStyle;exitPerimeter=0;" parent="-RUIcNyW75E8LrOZVRRS-27" source="-RUIcNyW75E8LrOZVRRS-16" target="GL7n69devyDXVmoGjWVV-57" edge="1">
          <mxGeometry relative="1" as="geometry">
            <Array as="points">
              <mxPoint x="1996.6802512106538" y="4.914238410596042" />
              <mxPoint x="1996.6802512106538" y="109.58311258278145" />
            </Array>
          </mxGeometry>
        </mxCell>
        <mxCell id="GL7n69devyDXVmoGjWVV-53" style="rounded=0;orthogonalLoop=1;jettySize=auto;html=1;entryX=0;entryY=0.75;entryDx=0;entryDy=0;exitX=0.998;exitY=0.549;exitDx=0;exitDy=0;edgeStyle=orthogonalEdgeStyle;exitPerimeter=0;" parent="-RUIcNyW75E8LrOZVRRS-27" source="-RUIcNyW75E8LrOZVRRS-14" target="GL7n69devyDXVmoGjWVV-42" edge="1">
          <mxGeometry relative="1" as="geometry">
            <mxPoint x="2644.0120429782087" y="-761.205298013245" as="targetPoint" />
            <Array as="points">
              <mxPoint x="1878.405505447942" y="538.9933774834437" />
            </Array>
          </mxGeometry>
        </mxCell>
        <mxCell id="GL7n69devyDXVmoGjWVV-54" style="rounded=0;orthogonalLoop=1;jettySize=auto;html=1;entryX=0;entryY=0.5;entryDx=0;entryDy=0;exitX=0.983;exitY=0.676;exitDx=0;exitDy=0;edgeStyle=orthogonalEdgeStyle;exitPerimeter=0;" parent="-RUIcNyW75E8LrOZVRRS-27" source="-RUIcNyW75E8LrOZVRRS-14" target="GL7n69devyDXVmoGjWVV-45" edge="1">
          <mxGeometry relative="1" as="geometry">
            <Array as="points">
              <mxPoint x="1874.720275423729" y="442.9668874172186" />
              <mxPoint x="1957.637950968523" y="442.9668874172186" />
              <mxPoint x="1957.637950968523" y="414.158940397351" />
            </Array>
          </mxGeometry>
        </mxCell>
        <mxCell id="GL7n69devyDXVmoGjWVV-25" style="rounded=0;orthogonalLoop=1;jettySize=auto;html=1;entryX=0;entryY=0.5;entryDx=0;entryDy=0;exitX=1;exitY=0.5;exitDx=0;exitDy=0;edgeStyle=orthogonalEdgeStyle;" parent="-RUIcNyW75E8LrOZVRRS-27" source="-RUIcNyW75E8LrOZVRRS-20" target="GL7n69devyDXVmoGjWVV-13" edge="1">
          <mxGeometry relative="1" as="geometry">
            <mxPoint x="2634.798967917676" y="-319.4834437086093" as="targetPoint" />
            <Array as="points">
              <mxPoint x="1828.6549001210653" y="279.72185430463577" />
              <mxPoint x="2040.555626513317" y="279.72185430463577" />
              <mxPoint x="2040.555626513317" y="606.2119205298013" />
            </Array>
          </mxGeometry>
        </mxCell>
        <mxCell id="GL7n69devyDXVmoGjWVV-34" style="rounded=0;orthogonalLoop=1;jettySize=auto;html=1;exitX=1;exitY=0.5;exitDx=0;exitDy=0;edgeStyle=orthogonalEdgeStyle;entryX=-0.002;entryY=0.665;entryDx=0;entryDy=0;entryPerimeter=0;" parent="-RUIcNyW75E8LrOZVRRS-27" source="-RUIcNyW75E8LrOZVRRS-20" target="GL7n69devyDXVmoGjWVV-31" edge="1">
          <mxGeometry relative="1" as="geometry">
            <mxPoint x="2040.555626513317" y="252.90066225165566" as="targetPoint" />
            <Array as="points" />
          </mxGeometry>
        </mxCell>
        <mxCell id="GL7n69devyDXVmoGjWVV-59" style="rounded=0;orthogonalLoop=1;jettySize=auto;html=1;entryX=0;entryY=0.5;entryDx=0;entryDy=0;exitX=1;exitY=0.5;exitDx=0;exitDy=0;edgeStyle=orthogonalEdgeStyle;" parent="-RUIcNyW75E8LrOZVRRS-27" source="-RUIcNyW75E8LrOZVRRS-20" target="GL7n69devyDXVmoGjWVV-57" edge="1">
          <mxGeometry relative="1" as="geometry">
            <Array as="points">
              <mxPoint x="1829" y="291" />
              <mxPoint x="1967" y="291" />
              <mxPoint x="1967" y="124" />
            </Array>
          </mxGeometry>
        </mxCell>
        <mxCell id="GL7n69devyDXVmoGjWVV-66" value="" style="rounded=0;orthogonalLoop=1;jettySize=auto;html=1;entryX=0;entryY=0.5;entryDx=0;entryDy=0;exitX=1;exitY=0.5;exitDx=0;exitDy=0;edgeStyle=orthogonalEdgeStyle;" parent="-RUIcNyW75E8LrOZVRRS-27" source="-RUIcNyW75E8LrOZVRRS-20" target="rrfpWrtRIMoo7r-Dwv4L-49" edge="1">
          <mxGeometry relative="1" as="geometry">
            <mxPoint x="2644.0120429782087" y="-606.5364238410596" as="targetPoint" />
            <mxPoint x="2045.1621640435837" y="-698.7218543046358" as="sourcePoint" />
            <Array as="points">
              <mxPoint x="1829" y="301" />
              <mxPoint x="2013" y="301" />
              <mxPoint x="2013" y="216" />
            </Array>
          </mxGeometry>
        </mxCell>
        <mxCell id="-RUIcNyW75E8LrOZVRRS-15" value="" style="group;rotation=-90;" parent="-RUIcNyW75E8LrOZVRRS-27" vertex="1" connectable="0">
          <mxGeometry x="1561.4757233656173" y="442.9668874172186" width="377.7360774818402" height="172.8476821192053" as="geometry" />
        </mxCell>
        <mxCell id="-RUIcNyW75E8LrOZVRRS-30" value="" style="group;rotation=90;" parent="-RUIcNyW75E8LrOZVRRS-15" vertex="1" connectable="0">
          <mxGeometry x="105.9503631961259" y="-86.42384105960265" width="156.62227602905568" height="278.47682119205297" as="geometry" />
        </mxCell>
        <mxCell id="-RUIcNyW75E8LrOZVRRS-14" value="" style="rounded=1;whiteSpace=wrap;html=1;rotation=0;" parent="-RUIcNyW75E8LrOZVRRS-30" vertex="1">
          <mxGeometry x="-55.27845036319613" y="57.615894039735096" width="267.17917675544794" height="163.24503311258277" as="geometry" />
        </mxCell>
        <mxCell id="rrfpWrtRIMoo7r-Dwv4L-16" value="&lt;div&gt;ChangeTeamIcon&lt;/div&gt;&lt;div&gt;UseCase.kt&lt;/div&gt;" style="rounded=0;whiteSpace=wrap;html=1;rotation=0;" parent="-RUIcNyW75E8LrOZVRRS-30" vertex="1">
          <mxGeometry x="-36.85230024213075" y="76.82119205298012" width="110.55690072639226" height="57.615894039735096" as="geometry" />
        </mxCell>
        <mxCell id="rrfpWrtRIMoo7r-Dwv4L-17" value="&lt;div&gt;CreateTeam&lt;/div&gt;&lt;div&gt;UseCase.kt&lt;/div&gt;" style="rounded=0;whiteSpace=wrap;html=1;rotation=0;" parent="-RUIcNyW75E8LrOZVRRS-30" vertex="1">
          <mxGeometry x="82.91767554479419" y="76.82119205298012" width="110.55690072639226" height="57.615894039735096" as="geometry" />
        </mxCell>
        <mxCell id="rrfpWrtRIMoo7r-Dwv4L-18" value="&lt;div&gt;GetMyTeams&lt;/div&gt;&lt;div&gt;UseCase.kt&lt;/div&gt;" style="rounded=0;whiteSpace=wrap;html=1;rotation=0;" parent="-RUIcNyW75E8LrOZVRRS-30" vertex="1">
          <mxGeometry x="-36.85230024213075" y="144.03973509933775" width="110.55690072639226" height="57.615894039735096" as="geometry" />
        </mxCell>
        <mxCell id="rrfpWrtRIMoo7r-Dwv4L-19" value="&lt;div&gt;GetTeamById&lt;/div&gt;&lt;div&gt;UseCase.kt&lt;/div&gt;" style="rounded=0;whiteSpace=wrap;html=1;rotation=0;" parent="-RUIcNyW75E8LrOZVRRS-30" vertex="1">
          <mxGeometry x="82.91767554479419" y="144.03973509933775" width="110.55690072639226" height="57.615894039735096" as="geometry" />
        </mxCell>
        <mxCell id="-RUIcNyW75E8LrOZVRRS-21" value="" style="group;rotation=0;" parent="-RUIcNyW75E8LrOZVRRS-27" vertex="1" connectable="0">
          <mxGeometry x="1570.68879842615" y="262.50331125827813" width="267.17917675544794" height="96.02649006622516" as="geometry" />
        </mxCell>
        <mxCell id="-RUIcNyW75E8LrOZVRRS-20" value="" style="rounded=1;whiteSpace=wrap;html=1;rotation=0;" parent="-RUIcNyW75E8LrOZVRRS-21" vertex="1">
          <mxGeometry x="9.213075060532686" y="9.602649006622517" width="248.75302663438256" height="76.82119205298014" as="geometry" />
        </mxCell>
        <mxCell id="rrfpWrtRIMoo7r-Dwv4L-20" value="&lt;div&gt;GetTeamMembers&lt;/div&gt;&lt;div&gt;UseCase.kt&lt;/div&gt;" style="rounded=0;whiteSpace=wrap;html=1;rotation=0;" parent="-RUIcNyW75E8LrOZVRRS-21" vertex="1">
          <mxGeometry x="18.426150121065373" y="19.205298013245034" width="110.55690072639224" height="57.6158940397351" as="geometry" />
        </mxCell>
        <mxCell id="rrfpWrtRIMoo7r-Dwv4L-52" value="&lt;div&gt;GetCurrentUser&lt;/div&gt;&lt;div&gt;UseCase.kt&lt;/div&gt;" style="rounded=0;whiteSpace=wrap;html=1;rotation=0;" parent="-RUIcNyW75E8LrOZVRRS-21" vertex="1">
          <mxGeometry x="138.1961259079903" y="19.205298013245034" width="110.55690072639224" height="57.6158940397351" as="geometry" />
        </mxCell>
        <mxCell id="-RUIcNyW75E8LrOZVRRS-26" value="" style="group;rotation=0;" parent="-RUIcNyW75E8LrOZVRRS-27" vertex="1" connectable="0">
          <mxGeometry x="1563.6657233656174" y="-140.08576158940394" width="368.5230024213075" height="172.8476821192053" as="geometry" />
        </mxCell>
        <mxCell id="-RUIcNyW75E8LrOZVRRS-16" value="" style="rounded=1;whiteSpace=wrap;html=1;rotation=0;" parent="-RUIcNyW75E8LrOZVRRS-26" vertex="1">
          <mxGeometry width="368.5230024213075" height="172.8476821192053" as="geometry" />
        </mxCell>
        <mxCell id="rrfpWrtRIMoo7r-Dwv4L-9" value="&lt;div&gt;ChangeUserIcon&lt;/div&gt;&lt;div&gt;UseCase.kt&lt;/div&gt;" style="rounded=0;whiteSpace=wrap;html=1;rotation=0;" parent="-RUIcNyW75E8LrOZVRRS-26" vertex="1">
          <mxGeometry x="248.7530266343826" y="57.6158940397351" width="110.55690072639226" height="57.6158940397351" as="geometry" />
        </mxCell>
        <mxCell id="rrfpWrtRIMoo7r-Dwv4L-21" value="&lt;div&gt;GetOverdueCount&lt;/div&gt;&lt;div&gt;UseCase.kt&lt;/div&gt;" style="rounded=0;whiteSpace=wrap;html=1;rotation=0;" parent="-RUIcNyW75E8LrOZVRRS-26" vertex="1">
          <mxGeometry x="9.213075060532688" y="19.205298013245034" width="110.55690072639226" height="57.6158940397351" as="geometry" />
        </mxCell>
        <mxCell id="rrfpWrtRIMoo7r-Dwv4L-22" value="&lt;div&gt;SendInvite&lt;/div&gt;&lt;div&gt;UseCase.kt&lt;/div&gt;" style="rounded=0;whiteSpace=wrap;html=1;rotation=0;" parent="-RUIcNyW75E8LrOZVRRS-26" vertex="1">
          <mxGeometry x="9.213075060532688" y="96.02649006622516" width="110.55690072639226" height="57.6158940397351" as="geometry" />
        </mxCell>
        <mxCell id="rrfpWrtRIMoo7r-Dwv4L-30" value="&lt;div&gt;Authorization&lt;/div&gt;&lt;div&gt;UseCase.kt&lt;/div&gt;" style="rounded=0;whiteSpace=wrap;html=1;rotation=0;" parent="-RUIcNyW75E8LrOZVRRS-26" vertex="1">
          <mxGeometry x="128.98305084745763" y="96.02649006622516" width="110.55690072639226" height="57.6158940397351" as="geometry" />
        </mxCell>
        <mxCell id="rrfpWrtRIMoo7r-Dwv4L-31" value="&lt;div&gt;Registration&lt;/div&gt;&lt;div&gt;UseCase.kt&lt;/div&gt;" style="rounded=0;whiteSpace=wrap;html=1;rotation=0;" parent="-RUIcNyW75E8LrOZVRRS-26" vertex="1">
          <mxGeometry x="128.98305084745763" y="19.205298013245034" width="110.55690072639226" height="57.6158940397351" as="geometry" />
        </mxCell>
        <mxCell id="GL7n69devyDXVmoGjWVV-48" style="rounded=0;orthogonalLoop=1;jettySize=auto;html=1;entryX=-0.004;entryY=0.842;entryDx=0;entryDy=0;exitX=1;exitY=0.5;exitDx=0;exitDy=0;edgeStyle=orthogonalEdgeStyle;entryPerimeter=0;" parent="-RUIcNyW75E8LrOZVRRS-27" source="-RUIcNyW75E8LrOZVRRS-20" target="GL7n69devyDXVmoGjWVV-39" edge="1">
          <mxGeometry relative="1" as="geometry">
            <mxPoint x="1897.7529630750607" y="104.05960264900662" as="sourcePoint" />
            <Array as="points">
              <mxPoint x="1829" y="282" />
              <mxPoint x="1939" y="282" />
              <mxPoint x="1939" y="38" />
            </Array>
          </mxGeometry>
        </mxCell>
        <mxCell id="GL7n69devyDXVmoGjWVV-49" style="rounded=0;orthogonalLoop=1;jettySize=auto;html=1;entryX=0;entryY=0.5;entryDx=0;entryDy=0;exitX=1;exitY=0.5;exitDx=0;exitDy=0;edgeStyle=orthogonalEdgeStyle;" parent="-RUIcNyW75E8LrOZVRRS-27" source="-RUIcNyW75E8LrOZVRRS-16" target="GL7n69devyDXVmoGjWVV-39" edge="1">
          <mxGeometry relative="1" as="geometry">
            <Array as="points">
              <mxPoint x="1932.188725786925" y="-29.655298013245044" />
              <mxPoint x="2010.499863801453" y="-29.655298013245044" />
              <mxPoint x="2010.499863801453" y="18.357947019867552" />
            </Array>
          </mxGeometry>
        </mxCell>
        <mxCell id="rrfpWrtRIMoo7r-Dwv4L-51" value="" style="rounded=0;orthogonalLoop=1;jettySize=auto;html=1;edgeStyle=orthogonalEdgeStyle;" parent="-RUIcNyW75E8LrOZVRRS-27" source="rrfpWrtRIMoo7r-Dwv4L-49" target="rrfpWrtRIMoo7r-Dwv4L-50" edge="1">
          <mxGeometry relative="1" as="geometry" />
        </mxCell>
        <mxCell id="rrfpWrtRIMoo7r-Dwv4L-50" value="MainScreen.kt" style="whiteSpace=wrap;html=1;rounded=0;rotation=0;" parent="-RUIcNyW75E8LrOZVRRS-27" vertex="1">
          <mxGeometry x="2238.63674031477" y="187.49960264900662" width="110.55690072639226" height="57.6158940397351" as="geometry" />
        </mxCell>
        <mxCell id="GL7n69devyDXVmoGjWVV-12" style="rounded=0;orthogonalLoop=1;jettySize=auto;html=1;entryX=0;entryY=0.5;entryDx=0;entryDy=0;edgeStyle=orthogonalEdgeStyle;" parent="-RUIcNyW75E8LrOZVRRS-27" source="GL7n69devyDXVmoGjWVV-13" target="GL7n69devyDXVmoGjWVV-14" edge="1">
          <mxGeometry relative="1" as="geometry" />
        </mxCell>
        <mxCell id="GL7n69devyDXVmoGjWVV-13" value="&lt;div&gt;TaskMembersScreen&lt;/div&gt;&lt;div&gt;ViewModel.kt&lt;/div&gt;" style="rounded=0;whiteSpace=wrap;html=1;rotation=0;" parent="-RUIcNyW75E8LrOZVRRS-27" vertex="1">
          <mxGeometry x="2105.047151937046" y="577.4039735099337" width="110.55690072639226" height="57.6158940397351" as="geometry" />
        </mxCell>
        <mxCell id="GL7n69devyDXVmoGjWVV-14" value="&lt;div&gt;TaskMembers&lt;/div&gt;&lt;div&gt;Screen.kt&lt;/div&gt;" style="rounded=0;whiteSpace=wrap;html=1;rotation=0;" parent="-RUIcNyW75E8LrOZVRRS-27" vertex="1">
          <mxGeometry x="2238.63674031477" y="577.4039735099337" width="110.55690072639226" height="57.6158940397351" as="geometry" />
        </mxCell>
        <mxCell id="GL7n69devyDXVmoGjWVV-30" style="rounded=0;orthogonalLoop=1;jettySize=auto;html=1;entryX=0;entryY=0.5;entryDx=0;entryDy=0;edgeStyle=orthogonalEdgeStyle;" parent="-RUIcNyW75E8LrOZVRRS-27" source="GL7n69devyDXVmoGjWVV-31" target="GL7n69devyDXVmoGjWVV-32" edge="1">
          <mxGeometry relative="1" as="geometry" />
        </mxCell>
        <mxCell id="GL7n69devyDXVmoGjWVV-31" value="&lt;div&gt;TasksScreen&lt;/div&gt;&lt;div&gt;ViewModel.kt&lt;/div&gt;" style="rounded=0;whiteSpace=wrap;html=1;rotation=0;" parent="-RUIcNyW75E8LrOZVRRS-27" vertex="1">
          <mxGeometry x="2105.047151937046" y="272.10596026490066" width="110.55690072639226" height="57.6158940397351" as="geometry" />
        </mxCell>
        <mxCell id="GL7n69devyDXVmoGjWVV-32" value="TasksScreen.kt" style="rounded=0;whiteSpace=wrap;html=1;rotation=0;" parent="-RUIcNyW75E8LrOZVRRS-27" vertex="1">
          <mxGeometry x="2238.63674031477" y="272.10596026490066" width="110.55690072639226" height="57.6158940397351" as="geometry" />
        </mxCell>
        <mxCell id="GL7n69devyDXVmoGjWVV-41" style="rounded=0;orthogonalLoop=1;jettySize=auto;html=1;entryX=0;entryY=0.5;entryDx=0;entryDy=0;edgeStyle=orthogonalEdgeStyle;" parent="-RUIcNyW75E8LrOZVRRS-27" source="GL7n69devyDXVmoGjWVV-42" target="GL7n69devyDXVmoGjWVV-43" edge="1">
          <mxGeometry relative="1" as="geometry" />
        </mxCell>
        <mxCell id="GL7n69devyDXVmoGjWVV-42" value="&lt;div&gt;TeamProfileScreen&lt;/div&gt;&lt;div&gt;ViewModel.kt&lt;/div&gt;" style="rounded=0;whiteSpace=wrap;html=1;rotation=0;" parent="-RUIcNyW75E8LrOZVRRS-27" vertex="1">
          <mxGeometry x="2105.047151937046" y="495.7814569536424" width="110.55690072639226" height="57.6158940397351" as="geometry" />
        </mxCell>
        <mxCell id="GL7n69devyDXVmoGjWVV-43" value="&lt;div&gt;TeamProfile&lt;/div&gt;&lt;div&gt;Screen.kt&lt;/div&gt;" style="rounded=0;whiteSpace=wrap;html=1;rotation=0;" parent="-RUIcNyW75E8LrOZVRRS-27" vertex="1">
          <mxGeometry x="2238.63674031477" y="495.7814569536424" width="110.55690072639226" height="57.6158940397351" as="geometry" />
        </mxCell>
        <mxCell id="GL7n69devyDXVmoGjWVV-44" style="rounded=0;orthogonalLoop=1;jettySize=auto;html=1;entryX=0;entryY=0.5;entryDx=0;entryDy=0;edgeStyle=orthogonalEdgeStyle;" parent="-RUIcNyW75E8LrOZVRRS-27" source="GL7n69devyDXVmoGjWVV-45" target="GL7n69devyDXVmoGjWVV-46" edge="1">
          <mxGeometry relative="1" as="geometry" />
        </mxCell>
        <mxCell id="GL7n69devyDXVmoGjWVV-45" value="&lt;div&gt;TeamScreen&lt;/div&gt;&lt;div&gt;ViewModel.kt&lt;/div&gt;" style="rounded=0;whiteSpace=wrap;html=1;rotation=0;" parent="-RUIcNyW75E8LrOZVRRS-27" vertex="1">
          <mxGeometry x="2105.047151937046" y="385.3509933774834" width="110.55690072639226" height="57.6158940397351" as="geometry" />
        </mxCell>
        <mxCell id="GL7n69devyDXVmoGjWVV-46" value="TeamScreen.kt" style="rounded=0;whiteSpace=wrap;html=1;rotation=0;" parent="-RUIcNyW75E8LrOZVRRS-27" vertex="1">
          <mxGeometry x="2238.63674031477" y="385.3509933774834" width="110.55690072639226" height="57.6158940397351" as="geometry" />
        </mxCell>
        <mxCell id="GL7n69devyDXVmoGjWVV-56" style="rounded=0;orthogonalLoop=1;jettySize=auto;html=1;entryX=0;entryY=0.5;entryDx=0;entryDy=0;edgeStyle=orthogonalEdgeStyle;" parent="-RUIcNyW75E8LrOZVRRS-27" source="GL7n69devyDXVmoGjWVV-57" target="GL7n69devyDXVmoGjWVV-58" edge="1">
          <mxGeometry relative="1" as="geometry" />
        </mxCell>
        <mxCell id="GL7n69devyDXVmoGjWVV-57" value="&lt;div&gt;UserProfileScreen&lt;/div&gt;&lt;div&gt;ViewModel.kt&lt;/div&gt;" style="rounded=0;whiteSpace=wrap;html=1;rotation=0;" parent="-RUIcNyW75E8LrOZVRRS-27" vertex="1">
          <mxGeometry x="2107.237151937046" y="95.17913907284768" width="110.55690072639226" height="57.6158940397351" as="geometry" />
        </mxCell>
        <mxCell id="GL7n69devyDXVmoGjWVV-58" value="&lt;div&gt;UserProfile&lt;/div&gt;&lt;div&gt;Screen.kt&lt;/div&gt;" style="rounded=0;whiteSpace=wrap;html=1;rotation=0;" parent="-RUIcNyW75E8LrOZVRRS-27" vertex="1">
          <mxGeometry x="2240.82674031477" y="95.17913907284768" width="110.55690072639226" height="57.6158940397351" as="geometry" />
        </mxCell>
        <mxCell id="rrfpWrtRIMoo7r-Dwv4L-49" value="&lt;div&gt;MainScreen&lt;/div&gt;&lt;div&gt;ViewModel.kt&lt;/div&gt;" style="rounded=0;whiteSpace=wrap;html=1;rotation=0;" parent="-RUIcNyW75E8LrOZVRRS-27" vertex="1">
          <mxGeometry x="2105.047151937046" y="187.49960264900662" width="110.55690072639226" height="57.6158940397351" as="geometry" />
        </mxCell>
        <mxCell id="GL7n69devyDXVmoGjWVV-38" style="rounded=0;orthogonalLoop=1;jettySize=auto;html=1;entryX=0;entryY=0.5;entryDx=0;entryDy=0;edgeStyle=orthogonalEdgeStyle;" parent="-RUIcNyW75E8LrOZVRRS-27" source="GL7n69devyDXVmoGjWVV-39" target="GL7n69devyDXVmoGjWVV-40" edge="1">
          <mxGeometry relative="1" as="geometry" />
        </mxCell>
        <mxCell id="GL7n69devyDXVmoGjWVV-39" value="&lt;div&gt;TeamMembers&lt;/div&gt;&lt;div&gt;Screen&lt;/div&gt;&lt;div&gt;ViewModel.kt&lt;/div&gt;" style="rounded=0;whiteSpace=wrap;html=1;rotation=0;" parent="-RUIcNyW75E8LrOZVRRS-27" vertex="1">
          <mxGeometry x="2107.237151937046" y="-10.449999999999989" width="110.55690072639226" height="57.6158940397351" as="geometry" />
        </mxCell>
        <mxCell id="GL7n69devyDXVmoGjWVV-40" value="&lt;div&gt;TeamMembers&lt;/div&gt;&lt;div&gt;Screen.kt&lt;/div&gt;" style="rounded=0;whiteSpace=wrap;html=1;rotation=0;" parent="-RUIcNyW75E8LrOZVRRS-27" vertex="1">
          <mxGeometry x="2240.82674031477" y="-10.449999999999989" width="110.55690072639226" height="57.6158940397351" as="geometry" />
        </mxCell>
        <mxCell id="rrfpWrtRIMoo7r-Dwv4L-42" style="rounded=0;orthogonalLoop=1;jettySize=auto;html=1;exitX=1;exitY=0.5;exitDx=0;exitDy=0;entryX=0;entryY=0.5;entryDx=0;entryDy=0;edgeStyle=orthogonalEdgeStyle;" parent="-RUIcNyW75E8LrOZVRRS-27" source="-RUIcNyW75E8LrOZVRRS-16" target="rrfpWrtRIMoo7r-Dwv4L-32" edge="1">
          <mxGeometry relative="1" as="geometry">
            <Array as="points">
              <mxPoint x="1932.188725786925" y="-106.47649006622515" />
              <mxPoint x="1964.4344884987895" y="-106.47649006622515" />
              <mxPoint x="1964.4344884987895" y="-173.69503311258273" />
            </Array>
          </mxGeometry>
        </mxCell>
        <mxCell id="GL7n69devyDXVmoGjWVV-5" value="" style="rounded=0;orthogonalLoop=1;jettySize=auto;html=1;edgeStyle=orthogonalEdgeStyle;" parent="-RUIcNyW75E8LrOZVRRS-27" source="GL7n69devyDXVmoGjWVV-6" target="GL7n69devyDXVmoGjWVV-7" edge="1">
          <mxGeometry relative="1" as="geometry" />
        </mxCell>
        <mxCell id="GL7n69devyDXVmoGjWVV-6" value="&lt;div&gt;RegistrationScreen&lt;/div&gt;&lt;div&gt;ViewModel.kt&lt;/div&gt;" style="rounded=0;whiteSpace=wrap;html=1;rotation=0;" parent="-RUIcNyW75E8LrOZVRRS-27" vertex="1">
          <mxGeometry x="2107.237151937046" y="-111.27781456953642" width="110.55690072639226" height="57.6158940397351" as="geometry" />
        </mxCell>
        <mxCell id="GL7n69devyDXVmoGjWVV-7" value="&lt;div&gt;Registration&lt;/div&gt;&lt;div&gt;Screen.kt&lt;/div&gt;" style="whiteSpace=wrap;html=1;rounded=0;rotation=0;" parent="-RUIcNyW75E8LrOZVRRS-27" vertex="1">
          <mxGeometry x="2240.82674031477" y="-111.27781456953642" width="110.55690072639226" height="57.6158940397351" as="geometry" />
        </mxCell>
        <mxCell id="GL7n69devyDXVmoGjWVV-8" style="rounded=0;orthogonalLoop=1;jettySize=auto;html=1;entryX=0;entryY=0.5;entryDx=0;entryDy=0;exitX=1;exitY=0.5;exitDx=0;exitDy=0;edgeStyle=orthogonalEdgeStyle;" parent="-RUIcNyW75E8LrOZVRRS-27" source="-RUIcNyW75E8LrOZVRRS-16" target="GL7n69devyDXVmoGjWVV-6" edge="1">
          <mxGeometry relative="1" as="geometry">
            <Array as="points">
              <mxPoint x="2010.499863801453" y="-53.66192052980131" />
              <mxPoint x="2010.499863801453" y="-82.46986754966889" />
            </Array>
          </mxGeometry>
        </mxCell>
        <mxCell id="rrfpWrtRIMoo7r-Dwv4L-34" style="rounded=0;orthogonalLoop=1;jettySize=auto;html=1;entryX=0;entryY=0.5;entryDx=0;entryDy=0;edgeStyle=orthogonalEdgeStyle;" parent="-RUIcNyW75E8LrOZVRRS-27" source="rrfpWrtRIMoo7r-Dwv4L-32" target="rrfpWrtRIMoo7r-Dwv4L-33" edge="1">
          <mxGeometry relative="1" as="geometry" />
        </mxCell>
        <mxCell id="rrfpWrtRIMoo7r-Dwv4L-32" value="&lt;div&gt;AuthorizationScreen&lt;/div&gt;&lt;div&gt;ViewModel.kt&lt;/div&gt;" style="rounded=0;whiteSpace=wrap;html=1;rotation=0;" parent="-RUIcNyW75E8LrOZVRRS-27" vertex="1">
          <mxGeometry x="2107.237151937046" y="-202.50298013245032" width="110.55690072639226" height="57.6158940397351" as="geometry" />
        </mxCell>
        <mxCell id="rrfpWrtRIMoo7r-Dwv4L-33" value="&lt;div&gt;Authorization&lt;/div&gt;&lt;div&gt;Screen.kt&lt;/div&gt;" style="rounded=0;whiteSpace=wrap;html=1;rotation=0;" parent="-RUIcNyW75E8LrOZVRRS-27" vertex="1">
          <mxGeometry x="2245.4332778450366" y="-202.50298013245032" width="110.55690072639226" height="57.6158940397351" as="geometry" />
        </mxCell>
      </root>
    </mxGraphModel>
  </diagram>
</mxfile>
